<svg xmlns="http://www.w3.org/2000/svg" width="600" height="380" viewBox="0 0 600 380">
  <rect width="600" height="380" rx="16" fill="#FFFFFF"/>
  <rect x="0" y="0" width="600" height="40" rx="16" fill="#4F46E5"/>
  <rect x="0" y="28" width="600" height="352" rx="0" fill="#F8F8FF"/>
  <circle cx="20" cy="20" r="6" fill="#FF5F57"/>
  <circle cx="36" cy="20" r="6" fill="#FFBD2E"/>
  <circle cx="52" cy="20" r="6" fill="#28CA41"/>
  <text x="300" y="24" font-family="system-ui, sans-serif" font-size="12" fill="#FFFFFF" text-anchor="middle">Student Learning Portal</text>
  <rect x="16" y="56" width="568" height="80" rx="10" fill="#FFFFFF"/>
  <rect x="36" y="72" width="200" height="14" rx="7" fill="#000000"/>
  <rect x="36" y="96" width="300" height="10" rx="5" fill="#999"/>
  <rect x="36" y="114" width="250" height="10" rx="5" fill="#999"/>
  <rect x="520" y="72" width="48" height="48" rx="24" fill="#4F46E5"/>
  <rect x="16" y="152" width="360" height="212" rx="10" fill="#FFFFFF"/>
  <rect x="36" y="172" width="120" height="12" rx="6" fill="#000000"/>
  <rect x="36" y="196" width="320" height="10" rx="5" fill="#999"/>
  <rect x="36" y="216" width="300" height="10" rx="5" fill="#999"/>
  <rect x="36" y="236" width="280" height="10" rx="5" fill="#999"/>
  <rect x="36" y="264" width="100" height="36" rx="18" fill="#4F46E5"/>
  <rect x="36" y="316" width="80" height="10" rx="5" fill="#999"/>
  <rect x="36" y="332" width="120" height="10" rx="5" fill="#999"/>
  <rect x="396" y="152" width="188" height="100" rx="10" fill="#FFFFFF"/>
  <rect x="416" y="172" width="100" height="12" rx="6" fill="#000000"/>
  <rect x="416" y="196" width="148" height="8" rx="4" fill="#999"/>
  <rect x="416" y="212" width="128" height="8" rx="4" fill="#999"/>
  <rect x="416" y="228" width="100" height="8" rx="4" fill="#999"/>
  <rect x="396" y="268" width="188" height="96" rx="10" fill="#FFFFFF"/>
  <rect x="416" y="288" width="100" height="12" rx="6" fill="#000000"/>
  <rect x="416" y="312" width="148" height="8" rx="4" fill="#999"/>
  <rect x="416" y="328" width="128" height="8" rx="4" fill="#999"/>
</svg>