<svg xmlns="http://www.w3.org/2000/svg" width="1600" height="900" viewBox="0 0 1600 900">
  <defs>
    <linearGradient id="g" x1="0" x2="1" y1="0" y2="1">
      <stop offset="0" stop-color="#e50914" stop-opacity=".35"/>
      <stop offset="1" stop-color="#ffffff" stop-opacity=".05"/>
    </linearGradient>
    <linearGradient id="p" x1="0" x2="0" y1="0" y2="1">
      <stop offset="0" stop-color="#ffffff" stop-opacity=".12"/>
      <stop offset="1" stop-color="#000000" stop-opacity=".35"/>
    </linearGradient>
    <filter id="grain" x="-10%" y="-10%" width="120%" height="120%">
      <feTurbulence type="fractalNoise" baseFrequency="0.9" numOctaves="2" stitchTiles="stitch"/>
      <feColorMatrix type="matrix" values="0 0 0 0 0  0 0 0 0 0  0 0 0 0 0  0 0 0 .18 0"/>
    </filter>
    <pattern id="cards" width="220" height="320" patternUnits="userSpaceOnUse">
      <g transform="rotate(-10 110 160)">
        <rect x="20" y="10" width="180" height="300" rx="18" fill="url(#p)" stroke="#ffffff" stroke-opacity=".12"/>
        <path d="M20 250 C80 210, 140 280, 200 220 L200 310 L20 310 Z" fill="url(#g)" opacity=".75"/>
        <rect x="38" y="38" width="96" height="10" rx="5" fill="#ffffff" opacity=".14"/>
        <rect x="38" y="58" width="140" height="10" rx="5" fill="#ffffff" opacity=".10"/>
        <rect x="38" y="78" width="124" height="10" rx="5" fill="#ffffff" opacity=".08"/>
        <circle cx="170" cy="64" r="18" fill="#e50914" opacity=".22"/>
      </g>
    </pattern>
  </defs>
  <rect width="1600" height="900" fill="#000"/>
  <rect width="1600" height="900" fill="url(#cards)" opacity=".95"/>
  <rect width="1600" height="900" filter="url(#grain)" opacity=".7"/>
</svg>

