<svg xmlns="http://www.w3.org/2000/svg" width="1200" height="800" viewBox="0 0 1200 800" role="img" aria-label="Volunteer helping a family">
  <defs>
    <linearGradient id="bg" x1="0" x2="1" y1="0" y2="1">
      <stop offset="0" stop-color="#f7f7f8"/>
      <stop offset="1" stop-color="#ffffff"/>
    </linearGradient>
    <linearGradient id="navy" x1="0" x2="1" y1="0" y2="1">
      <stop offset="0" stop-color="#1B3A5C"/>
      <stop offset="1" stop-color="#0b1220"/>
    </linearGradient>
    <linearGradient id="red" x1="0" x2="1" y1="0" y2="1">
      <stop offset="0" stop-color="#C41E3A"/>
      <stop offset="1" stop-color="#ff7a8a"/>
    </linearGradient>
  </defs>
  <rect width="1200" height="800" fill="url(#bg)"/>
  <circle cx="250" cy="160" r="170" fill="#C41E3A" opacity="0.12"/>
  <circle cx="980" cy="210" r="230" fill="#1B3A5C" opacity="0.10"/>

  <g transform="translate(220 210)">
    <circle cx="180" cy="120" r="54" fill="url(#navy)" opacity="0.16"/>
    <circle cx="180" cy="108" r="28" fill="#1B3A5C" opacity="0.18"/>
    <rect x="138" y="152" width="84" height="196" rx="42" fill="#1B3A5C" opacity="0.12"/>
    <rect x="92" y="230" width="176" height="68" rx="34" fill="#1B3A5C" opacity="0.10"/>

    <g transform="translate(330 40)">
      <circle cx="220" cy="200" r="54" fill="#C41E3A" opacity="0.14"/>
      <circle cx="220" cy="188" r="28" fill="#C41E3A" opacity="0.18"/>
      <rect x="178" y="232" width="84" height="196" rx="42" fill="#C41E3A" opacity="0.10"/>
      <rect x="126" y="300" width="186" height="72" rx="36" fill="#C41E3A" opacity="0.08"/>
    </g>

    <path d="M250 250c70-30 130-30 200 0" fill="none" stroke="url(#red)" stroke-width="12" stroke-linecap="round" opacity="0.85"/>
    <path d="M450 250c70-30 130-30 200 0" fill="none" stroke="url(#red)" stroke-width="12" stroke-linecap="round" opacity="0.55"/>

    <rect x="260" y="210" width="160" height="78" rx="18" fill="#ffffff" stroke="#e5e7eb"/>
    <rect x="282" y="230" width="90" height="10" rx="5" fill="#22314a" opacity="0.12"/>
    <rect x="282" y="248" width="120" height="10" rx="5" fill="#22314a" opacity="0.08"/>
    <rect x="282" y="266" width="70" height="10" rx="5" fill="#22314a" opacity="0.08"/>
  </g>

  <g transform="translate(70 70)">
    <rect x="0" y="0" width="1060" height="86" rx="18" fill="#1B3A5C" opacity="0.08"/>
    <rect x="24" y="30" width="230" height="12" rx="6" fill="#1B3A5C" opacity="0.18"/>
    <rect x="24" y="52" width="300" height="10" rx="5" fill="#1B3A5C" opacity="0.12"/>
    <rect x="880" y="22" width="160" height="42" rx="21" fill="#C41E3A" opacity="0.92"/>
  </g>
</svg>

