<svg xmlns="http://www.w3.org/2000/svg" width="1200" height="800" viewBox="0 0 1200 800" role="img" aria-label="Blood donation support">
  <defs>
    <linearGradient id="bg" x1="0" x2="1" y1="0" y2="1">
      <stop offset="0" stop-color="#ffffff"/>
      <stop offset="1" stop-color="#f2f3f5"/>
    </linearGradient>
    <linearGradient id="red" x1="0" x2="1" y1="0" y2="1">
      <stop offset="0" stop-color="#C41E3A"/>
      <stop offset="1" stop-color="#ff7a8a"/>
    </linearGradient>
  </defs>
  <rect width="1200" height="800" fill="url(#bg)"/>
  <circle cx="250" cy="180" r="160" fill="#1B3A5C" opacity="0.10"/>
  <circle cx="980" cy="160" r="200" fill="#C41E3A" opacity="0.10"/>

  <g transform="translate(220 190)">
    <rect x="0" y="0" width="760" height="420" rx="22" fill="#ffffff" stroke="#e5e7eb" stroke-width="2"/>
    <rect x="32" y="40" width="260" height="16" rx="8" fill="#22314a" opacity="0.14"/>
    <rect x="32" y="70" width="340" height="12" rx="6" fill="#22314a" opacity="0.10"/>

    <g transform="translate(480 110)">
      <path d="M120 0c50 80 90 120 90 190 0 60-50 110-110 110S0 260 0 200C0 120 60 80 120 0z" fill="url(#red)" opacity="0.95"/>
      <path d="M62 182h26v-26h24v26h26v24h-26v26H88v-26H62v-24z" fill="#ffffff" opacity="0.92"/>
    </g>

    <g transform="translate(40 140)">
      <rect x="0" y="0" width="360" height="64" rx="18" fill="#f7f7f8" stroke="#e5e7eb"/>
      <rect x="16" y="18" width="180" height="12" rx="6" fill="#22314a" opacity="0.12"/>
      <rect x="16" y="36" width="240" height="10" rx="5" fill="#22314a" opacity="0.08"/>
      <rect x="260" y="14" width="84" height="36" rx="18" fill="#C41E3A" opacity="0.92"/>

      <rect x="0" y="84" width="360" height="64" rx="18" fill="#f7f7f8" stroke="#e5e7eb"/>
      <rect x="16" y="102" width="160" height="12" rx="6" fill="#22314a" opacity="0.12"/>
      <rect x="16" y="120" width="230" height="10" rx="5" fill="#22314a" opacity="0.08"/>
      <rect x="260" y="98" width="84" height="36" rx="18" fill="#1B3A5C" opacity="0.88"/>

      <rect x="0" y="168" width="360" height="64" rx="18" fill="#f7f7f8" stroke="#e5e7eb"/>
      <rect x="16" y="186" width="200" height="12" rx="6" fill="#22314a" opacity="0.12"/>
      <rect x="16" y="204" width="250" height="10" rx="5" fill="#22314a" opacity="0.08"/>
      <rect x="260" y="182" width="84" height="36" rx="18" fill="#C41E3A" opacity="0.72"/>
    </g>
  </g>

  <g transform="translate(70 70)">
    <rect x="0" y="0" width="1060" height="86" rx="18" fill="#1B3A5C" opacity="0.08"/>
    <rect x="24" y="30" width="220" height="12" rx="6" fill="#1B3A5C" opacity="0.18"/>
    <rect x="24" y="52" width="300" height="10" rx="5" fill="#1B3A5C" opacity="0.12"/>
    <rect x="880" y="22" width="160" height="42" rx="21" fill="#C41E3A" opacity="0.92"/>
  </g>
</svg>

